{
  "packet_id": "hyatt_challenger_music_mix_20260517T090253Z",
  "status": "review_ready_pending_human_music_mix_disposition",
  "created_utc": "2026-05-17T09:02:59.125Z",
  "predecessor_packet_path": "/Users/mike/Episodes_CascadeEffects/Ep3_Hyatt-Regency/production/longform_v1_restart_20260516/youtube/rough_assembly/hyatt_living_cover_html_rough_proof_n6_architecture_crowd_density_20260517T083750Z",
  "mix_profile_id": "challenger_style_music_only_intro_fade_tail_full_outro_v1",
  "voice_source_path": "/Users/mike/Episodes_CascadeEffects/Ep3_Hyatt-Regency/final/Ep3_Hyatt-Regency.wav",
  "voice_source_sha256": "4987c649a19cccc36f3b1c0f0cddddba535e4a877be69c562f0e91302b550929",
  "voice_start_seconds": 9.601451,
  "voice_duration_seconds": 833.642812,
  "voice_end_seconds": 843.244263,
  "output_path": "/Users/mike/Episodes_CascadeEffects/Ep3_Hyatt-Regency/production/longform_v1_restart_20260516/youtube/rough_assembly/hyatt_living_cover_html_rough_proof_n6_challenger_music_20260517T090253Z/assets/audio/Ep3-Hyatt-Regency.challenger_music_review_mix.wav",
  "output_sha256": "b143e567af9a475144f7b8c3432ec11201ba2b44baf18d588bd39c7ecbf7d0c7",
  "output_probe": {
    "programs": [],
    "stream_groups": [],
    "streams": [
      {
        "codec_name": "pcm_s16le",
        "codec_type": "audio",
        "sample_rate": "44100",
        "channels": 2,
        "duration": "874.033923"
      }
    ],
    "format": {
      "duration": "874.033923",
      "size": "154179662"
    }
  },
  "browser_mp3_path": "/Users/mike/Episodes_CascadeEffects/Ep3_Hyatt-Regency/production/longform_v1_restart_20260516/youtube/rough_assembly/hyatt_living_cover_html_rough_proof_n6_challenger_music_20260517T090253Z/assets/audio/Ep3-Hyatt-Regency.challenger_music_web_review.mp3",
  "browser_mp3_sha256": "eea73bdc72e525233365505395f68add340ad1a7d492dca2ab406b2da5ca7c6e",
  "browser_mp3_probe": {
    "programs": [],
    "stream_groups": [],
    "streams": [
      {
        "codec_name": "mp3",
        "codec_type": "audio",
        "sample_rate": "44100",
        "channels": 2,
        "duration": "874.033923"
      }
    ],
    "format": {
      "duration": "874.033923",
      "size": "20978668"
    }
  },
  "total_duration_seconds": 874.033923,
  "expected_total_duration_seconds": 874.039478,
  "sample_rounding_delta_seconds": -0.005555,
  "intro_music_start_seconds": 0,
  "intro_music_only_end_seconds": 9.601451,
  "intro_music_fade_end_seconds": 11.601451,
  "outro_music_start_seconds": 843.244263,
  "outro_music_end_seconds": 874.033923,
  "end_screen_start_seconds": 843.244263,
  "youtube_end_screen_safe_window_seconds": [
    854.033923,
    874.033923
  ],
  "music_sources": {
    "registry": {
      "path": "/Users/mike/Agents_CascadeEffects/references/shorts/music_track_registry.json",
      "sha256": "e8ad71cc4933eb0459814a241aff3da766c66f5c36a2f52aa9469689d833934a",
      "bytes": 2632,
      "track_id": "paper_architecture_theme_v1"
    },
    "intro_body_loop": {
      "path": "/Users/mike/CascadeEffects_LocalArchive/Audio_CascadeEffects/2026-04-18/themesong/Paper Architecture instrumental_loop.wav",
      "sha256": "b26f01b5397398e20f24a2e5396221f5e5a1c3b9672baf9e37cb20adda982818",
      "bytes": 1693774,
      "duration_seconds": 9.601451,
      "role": "music_only_intro_and_2s_fade_tail_source"
    },
    "outro_full_track": {
      "path": "/Users/mike/CascadeEffects_LocalArchive/Audio_CascadeEffects/2026-04-18/themesong/Paper Architecture.m4a",
      "sha256": "d71785b8b28691260ca55fe5de1657ff5e6b69cd986dc04cfe09a1967c67b365",
      "bytes": 773136,
      "duration_seconds": 30.795215,
      "role": "full_music_only_outro"
    }
  },
  "mix_decisions": {
    "runtime_model": "music_only_intro_then_voiceover_with_2s_intro_fade_tail_then_full_music_only_outro",
    "voice_timing_shift_seconds": 9.601451,
    "caption_timing_shift_seconds": 9.601451,
    "intro_music_policy": "music_only_intro_before_voice_with_2s_fade_tail_under_voice",
    "outro_music_policy": "full_paper_architecture_m4a_after_last_spoken_word",
    "limiter": "alimiter limit=0.89 level=false"
  },
  "level_reads": {
    "full_mix": {
      "mean_volume_db": -14.9,
      "max_volume_db": -1,
      "raw": "[aist#0:0/pcm_s16le @ 0x73ac54300] Guessed Channel Layout: stereo\nInput #0, wav, from '/Users/mike/Episodes_CascadeEffects/Ep3_Hyatt-Regency/production/longform_v1_restart_20260516/youtube/rough_assembly/hyatt_living_cover_html_rough_proof_n6_challenger_music_20260517T090253Z/assets/audio/Ep3-Hyatt-Regency.challenger_music_review_mix.wav':\n  Metadata:\n    encoder         : Lavf62.3.100\n  Duration: 00:14:34.03, bitrate: 1411 kb/s\n  Stream #0:0: Audio: pcm_s16le ([1][0][0][0] / 0x0001), 44100 Hz, stereo, s16, 1411 kb/s\n[Parsed_volumedetect_0 @ 0x73ac2de00] n_samples: 0\nStream mapping:\n  Stream #0:0 -> #0:0 (pcm_s16le (native) -> pcm_s16le (native))\nPress [q] to stop, [?] for help\nOutput #0, null, to 'pipe:':\n  Metadata:\n    encoder         : Lavf62.3.100\n  Stream #0:0: Audio: pcm_s16le, 44100 Hz, stereo, s16, 1411 kb/s\n    Metadata:\n      encoder         : Lavc62.11.100 pcm_s16le\n[Parsed_volumedetect_0 @ 0x73ac2e280] n_samples: 77089792\n[Parsed_volumedetect_0 @ 0x73ac2e280] mean_volume: -14.9 dB\n[Parsed_volumedetect_0 @ 0x73ac2e280] max_volume: -1.0 dB\n[Parsed_volumedetect_0 @ 0x73ac2e280] histogram_1db: 114825\n[out#0/null @ 0x73ac2db00] video:0KiB audio:150566KiB subtitle:0KiB other streams:0KiB global headers:0KiB muxing overhead: unknown\nsize=N/A time=00:14:34.03 bitrate=N/A speed=6.79e+03x elapsed=0:00:00.12    \n"
    },
    "intro_music_only_sample": {
      "mean_volume_db": -15.5,
      "max_volume_db": -1.1,
      "raw": "[aist#0:0/pcm_s16le @ 0x752c18300] Guessed Channel Layout: stereo\nInput #0, wav, from '/Users/mike/Episodes_CascadeEffects/Ep3_Hyatt-Regency/production/longform_v1_restart_20260516/youtube/rough_assembly/hyatt_living_cover_html_rough_proof_n6_challenger_music_20260517T090253Z/assets/audio/Ep3-Hyatt-Regency.challenger_music_review_mix.wav':\n  Metadata:\n    encoder         : Lavf62.3.100\n  Duration: 00:14:34.03, bitrate: 1411 kb/s\n  Stream #0:0: Audio: pcm_s16le ([1][0][0][0] / 0x0001), 44100 Hz, stereo, s16, 1411 kb/s\n[Parsed_volumedetect_0 @ 0x753084480] n_samples: 0\nStream mapping:\n  Stream #0:0 -> #0:0 (pcm_s16le (native) -> pcm_s16le (native))\nPress [q] to stop, [?] for help\nOutput #0, null, to 'pipe:':\n  Metadata:\n    encoder         : Lavf62.3.100\n  Stream #0:0: Audio: pcm_s16le, 44100 Hz, stereo, s16, 1411 kb/s\n    Metadata:\n      encoder         : Lavc62.11.100 pcm_s16le\n[Parsed_volumedetect_0 @ 0x753084900] n_samples: 846848\n[Parsed_volumedetect_0 @ 0x753084900] mean_volume: -15.5 dB\n[Parsed_volumedetect_0 @ 0x753084900] max_volume: -1.1 dB\n[Parsed_volumedetect_0 @ 0x753084900] histogram_1db: 65\n[Parsed_volumedetect_0 @ 0x753084900] histogram_2db: 239\n[Parsed_volumedetect_0 @ 0x753084900] histogram_3db: 1483\n[out#0/null @ 0x753084180] video:0KiB audio:1654KiB subtitle:0KiB other streams:0KiB global headers:0KiB muxing overhead: unknown\nsize=N/A time=00:00:09.60 bitrate=N/A speed=6.05e+03x elapsed=0:00:00.00    \n"
    },
    "voice_boundary_sample": {
      "mean_volume_db": -12.8,
      "max_volume_db": -1,
      "raw": "[aist#0:0/pcm_s16le @ 0xad0c58300] Guessed Channel Layout: stereo\nInput #0, wav, from '/Users/mike/Episodes_CascadeEffects/Ep3_Hyatt-Regency/production/longform_v1_restart_20260516/youtube/rough_assembly/hyatt_living_cover_html_rough_proof_n6_challenger_music_20260517T090253Z/assets/audio/Ep3-Hyatt-Regency.challenger_music_review_mix.wav':\n  Metadata:\n    encoder         : Lavf62.3.100\n  Duration: 00:14:34.03, bitrate: 1411 kb/s\n  Stream #0:0: Audio: pcm_s16le ([1][0][0][0] / 0x0001), 44100 Hz, stereo, s16, 1411 kb/s\n[Parsed_volumedetect_0 @ 0xad1404480] n_samples: 0\nStream mapping:\n  Stream #0:0 -> #0:0 (pcm_s16le (native) -> pcm_s16le (native))\nPress [q] to stop, [?] for help\nOutput #0, null, to 'pipe:':\n  Metadata:\n    encoder         : Lavf62.3.100\n  Stream #0:0: Audio: pcm_s16le, 44100 Hz, stereo, s16, 1411 kb/s\n    Metadata:\n      encoder         : Lavc62.11.100 pcm_s16le\n[Parsed_volumedetect_0 @ 0xad1404900] n_samples: 176400\n[Parsed_volumedetect_0 @ 0xad1404900] mean_volume: -12.8 dB\n[Parsed_volumedetect_0 @ 0xad1404900] max_volume: -1.0 dB\n[Parsed_volumedetect_0 @ 0xad1404900] histogram_1db: 958\n[out#0/null @ 0xad1404180] video:0KiB audio:345KiB subtitle:0KiB other streams:0KiB global headers:0KiB muxing overhead: unknown\nsize=N/A time=00:00:02.00 bitrate=N/A speed=2.01e+03x elapsed=0:00:00.00    \n"
    },
    "body_after_fade_sample": {
      "mean_volume_db": -16,
      "max_volume_db": -1,
      "raw": "[aist#0:0/pcm_s16le @ 0xbc4800300] Guessed Channel Layout: stereo\nInput #0, wav, from '/Users/mike/Episodes_CascadeEffects/Ep3_Hyatt-Regency/production/longform_v1_restart_20260516/youtube/rough_assembly/hyatt_living_cover_html_rough_proof_n6_challenger_music_20260517T090253Z/assets/audio/Ep3-Hyatt-Regency.challenger_music_review_mix.wav':\n  Metadata:\n    encoder         : Lavf62.3.100\n  Duration: 00:14:34.03, bitrate: 1411 kb/s\n  Stream #0:0: Audio: pcm_s16le ([1][0][0][0] / 0x0001), 44100 Hz, stereo, s16, 1411 kb/s\n[Parsed_volumedetect_0 @ 0xbc4c2de00] n_samples: 0\nStream mapping:\n  Stream #0:0 -> #0:0 (pcm_s16le (native) -> pcm_s16le (native))\nPress [q] to stop, [?] for help\nOutput #0, null, to 'pipe:':\n  Metadata:\n    encoder         : Lavf62.3.100\n  Stream #0:0: Audio: pcm_s16le, 44100 Hz, stereo, s16, 1411 kb/s\n    Metadata:\n      encoder         : Lavc62.11.100 pcm_s16le\n[Parsed_volumedetect_0 @ 0xbc4c2e280] n_samples: 352800\n[Parsed_volumedetect_0 @ 0xbc4c2e280] mean_volume: -16.0 dB\n[Parsed_volumedetect_0 @ 0xbc4c2e280] max_volume: -1.0 dB\n[Parsed_volumedetect_0 @ 0xbc4c2e280] histogram_1db: 166\n[Parsed_volumedetect_0 @ 0xbc4c2e280] histogram_2db: 284\n[out#0/null @ 0xbc4c2db00] video:0KiB audio:689KiB subtitle:0KiB other streams:0KiB global headers:0KiB muxing overhead: unknown\nsize=N/A time=00:00:04.00 bitrate=N/A speed=2.86e+03x elapsed=0:00:00.00    \n"
    },
    "outro_music_only_sample": {
      "mean_volume_db": -11.7,
      "max_volume_db": -1,
      "raw": "[aist#0:0/pcm_s16le @ 0x766c34300] Guessed Channel Layout: stereo\nInput #0, wav, from '/Users/mike/Episodes_CascadeEffects/Ep3_Hyatt-Regency/production/longform_v1_restart_20260516/youtube/rough_assembly/hyatt_living_cover_html_rough_proof_n6_challenger_music_20260517T090253Z/assets/audio/Ep3-Hyatt-Regency.challenger_music_review_mix.wav':\n  Metadata:\n    encoder         : Lavf62.3.100\n  Duration: 00:14:34.03, bitrate: 1411 kb/s\n  Stream #0:0: Audio: pcm_s16le ([1][0][0][0] / 0x0001), 44100 Hz, stereo, s16, 1411 kb/s\n[Parsed_volumedetect_0 @ 0x767404480] n_samples: 0\nStream mapping:\n  Stream #0:0 -> #0:0 (pcm_s16le (native) -> pcm_s16le (native))\nPress [q] to stop, [?] for help\nOutput #0, null, to 'pipe:':\n  Metadata:\n    encoder         : Lavf62.3.100\n  Stream #0:0: Audio: pcm_s16le, 44100 Hz, stereo, s16, 1411 kb/s\n    Metadata:\n      encoder         : Lavc62.11.100 pcm_s16le\n[Parsed_volumedetect_0 @ 0x767404900] n_samples: 352800\n[Parsed_volumedetect_0 @ 0x767404900] mean_volume: -11.7 dB\n[Parsed_volumedetect_0 @ 0x767404900] max_volume: -1.0 dB\n[Parsed_volumedetect_0 @ 0x767404900] histogram_1db: 760\n[out#0/null @ 0x767404180] video:0KiB audio:689KiB subtitle:0KiB other streams:0KiB global headers:0KiB muxing overhead: unknown\nsize=N/A time=00:00:04.00 bitrate=N/A speed=3.33e+03x elapsed=0:00:00.00    \n"
    }
  },
  "rights_and_claims": {
    "rights_check_required_before_public_release": true,
    "claim_risk": "check_upload_processing_before_public_release",
    "notes": "Uses registered Paper Architecture theme assets from the local music registry. Public release remains blocked until YouTube claim/status checks are complete."
  },
  "reads": {
    "wav_duration_read": "pass",
    "stream_read": "pass_pcm_s16le_stereo_44100",
    "mp3_review_asset_read": "pass_browser_review_mp3_created",
    "no_clipping_read": "pass",
    "voice_master_unchanged_read": "pass_source_hash_recorded",
    "approved_music_source_read": "pass_registered_paper_architecture_theme_assets_recorded",
    "series_music_contract_read": "pass_challenger_style_default",
    "intro_music_contract_read": "pass_music_only_intro_then_2s_fade_tail_under_voice",
    "voice_start_offset_read": "pass_voice_starts_after_9s601_music_only_intro",
    "caption_timing_shift_read": "pass_offset_vtt_srt_shifted_by_9s601451",
    "full_outro_music_read": "pass_full_paper_architecture_outro_after_last_spoken_word",
    "end_screen_music_handoff_read": "pass_end_screen_starts_at_shifted_voice_end",
    "audio_level_mix_read": "pass_max_volume_-1dB",
    "music_rights_read": "review_warning_registered_paper_architecture_theme_requires_youtube_claim_check_before_public_release",
    "music_contract_regression_read": "pass_no_under_opening_voice_bed_plus_short_tail_regression",
    "downstream_gate_read": "pass_final_render_final_assembly_publish_upload_locked_until_human_keep"
  }
}
